<svg version="1.1" id="Layer_1" xmlns="http://www.w3.org/2000/svg" xmlns:xlink="http://www.w3.org/1999/xlink" x="0px" y="0px" width="100%" viewBox="0 0 683 132" enable-background="new 0 0 683 132" xml:space="preserve">

<path fill="#F1C02A" opacity="1.000000" stroke="none" d="
M81.569260,97.751984 
	C76.389870,100.240402 71.486420,101.500107 65.901009,101.117233 
	C57.820347,100.563316 49.673466,100.975433 41.016205,100.975433 
	C41.016205,94.724472 41.005005,88.795937 41.018570,82.867455 
	C41.045620,71.046318 41.134434,59.225063 41.095093,47.404198 
	C41.081367,43.281479 42.376579,41.644943 47.002682,41.817852 
	C54.592571,42.101543 62.278694,40.629597 69.818512,41.228645 
	C79.448738,41.993782 87.734406,46.254700 91.971077,55.578899 
	C94.187904,60.457737 96.850960,65.881165 96.641167,70.948029 
	C96.286301,79.518890 94.086700,88.121559 86.451355,93.870193 
	C84.889130,95.046394 83.410751,96.333977 81.569260,97.751984 
M55.969872,51.993343 
	C55.969872,51.993343 56.098862,51.960049 55.590050,52.629646 
	C55.444721,64.176697 55.285500,75.723633 55.195988,87.271118 
	C55.191616,87.835419 55.797714,88.404465 57.027409,89.007179 
	C59.680168,89.006920 62.340343,89.136299 64.984467,88.985016 
	C80.189499,88.115051 83.738274,74.040764 79.407578,62.810886 
	C75.913132,53.749466 68.347565,52.109501 59.548141,51.460506 
	C58.366070,51.681221 57.183994,51.901936 55.969872,51.993343 
z" data-index="1" style="opacity: 1;"></path>
<path fill="#F1C028" opacity="1.000000" stroke="none" d="
M127.164276,40.993351 
	C128.983200,40.936501 130.810410,40.971012 132.619568,40.806725 
	C139.838440,40.151165 152.881927,48.498764 152.053589,57.241249 
	C151.594406,62.087696 153.224747,67.316261 150.029892,71.661186 
	C147.607330,74.955818 144.704773,77.897491 141.891724,81.139214 
	C145.256943,86.908951 149.121796,93.535339 153.566101,101.155197 
	C147.670624,101.155197 142.654434,101.155197 137.014053,101.155197 
	C134.247086,96.244583 131.177429,90.775154 128.086273,85.317924 
	C125.779617,81.245689 123.156761,80.725143 119.181107,84.152344 
	C118.394478,88.134850 117.850960,91.624672 118.087112,95.060898 
	C118.447968,100.311668 115.149467,99.925575 111.657104,100.068245 
	C107.839211,100.224205 105.860085,99.343285 105.918137,94.885010 
	C106.126259,78.904633 106.067429,62.919235 105.935768,46.937168 
	C105.905960,43.318779 107.087128,41.917454 110.816391,41.909073 
	C116.266342,41.896824 121.715042,41.326057 127.164276,40.993351 
M138.019775,58.890369 
	C134.577881,49.011932 126.174721,52.961269 119.282501,51.862747 
	C119.282501,57.999790 119.282501,63.771301 119.282501,70.010361 
	C122.636246,70.010361 125.930916,70.281898 129.165115,69.955040 
	C136.373596,69.226532 137.987701,67.222954 138.019775,58.890369 
z" data-index="2" style="opacity: 1;"></path>
<path fill="#F0C02A" opacity="1.000000" stroke="none" d="
M350.754578,90.772034 
	C352.723633,87.368484 354.442169,84.254120 356.265961,80.948959 
	C363.214050,84.979057 369.656677,90.002380 378.010742,88.848389 
	C380.131439,88.555443 381.991608,86.376778 383.971497,85.064590 
	C382.569550,83.042526 381.609833,80.084549 379.682739,79.174011 
	C373.919220,76.450790 367.567230,74.960228 361.841003,72.174385 
	C355.992645,69.329140 352.618835,63.559681 353.322815,57.459064 
	C354.040100,51.242630 356.902435,45.726604 363.777771,42.357048 
	C372.863373,37.904259 381.112457,38.856380 389.785248,42.383526 
	C392.864471,43.635822 396.012512,44.718781 399.367920,45.967934 
	C397.504456,50.333523 395.952332,53.969639 394.586456,57.169479 
	C387.269531,55.691608 380.539093,54.116997 373.724609,53.112286 
	C372.090881,52.871418 370.177734,54.525772 368.393097,55.308495 
	C369.288361,56.882896 370.147400,58.479290 371.086578,60.027042 
	C372.949585,63.097244 375.890289,63.488697 379.223999,64.200302 
	C386.360352,65.723618 392.595856,69.535065 397.450653,75.086708 
	C400.062836,78.073799 398.741669,90.741554 395.923187,93.579239 
	C386.742584,102.822395 372.981140,104.845268 361.170135,98.635689 
	C357.577576,96.746910 354.038025,94.754654 350.529907,92.713936 
	C350.283997,92.570877 350.501831,91.630714 350.754578,90.772034 
z" data-index="3" style="opacity: 1;"></path>
<path fill="#F1C029" opacity="1.000000" stroke="none" d="
M296.832977,44.005745 
	C299.881866,50.745251 302.937683,57.481636 305.977051,64.225418 
	C307.790985,68.250168 309.579193,72.286499 311.476562,76.536232 
	C316.902527,65.559387 322.213196,54.642365 327.751740,43.842171 
	C328.405334,42.567608 330.222443,41.334076 331.650726,41.128773 
	C334.567932,40.709446 337.587616,41.003128 341.527252,41.003128 
	C339.579926,45.527000 337.994873,49.468349 336.207001,53.315445 
	C330.137634,66.375084 323.976501,79.392059 317.897247,92.447151 
	C316.417450,95.624992 314.408356,96.989769 310.867889,95.456764 
	C309.848114,95.015205 308.475281,95.389046 306.236572,95.389046 
	C302.830475,86.604111 299.261353,77.398666 295.362701,67.673904 
	C294.932007,66.271835 294.830811,65.389084 294.729614,64.506332 
	C293.045319,67.606415 292.163422,70.769646 292.063416,73.957405 
	C291.839203,81.104942 291.891785,88.267273 292.057892,95.418327 
	C292.138824,98.903076 290.735107,100.048935 287.341125,100.095108 
	C283.676086,100.144966 281.898865,99.251640 281.883575,95.112198 
	C281.823547,78.826691 281.426331,62.542591 281.307007,46.256844 
	C281.297699,44.987961 282.359497,42.683853 283.108002,42.604668 
	C287.730988,42.115540 292.615631,40.297955 296.832977,44.005745 
z" data-index="4" style="opacity: 1;"></path>
<path fill="#F1C029" opacity="1.000000" stroke="none" d="
M556.986877,41.169739 
	C562.691711,41.272896 568.425598,41.053368 574.093933,41.562725 
	C580.836609,42.168621 587.387756,51.690773 586.214478,58.393032 
	C586.060730,59.271137 586.440430,60.252991 586.620361,61.177578 
	C588.620972,71.460846 577.854492,82.622704 568.453552,81.373161 
	C563.902710,80.768265 559.106384,82.010223 554.092651,82.444466 
	C554.092651,88.368919 554.092651,94.308266 554.092651,100.619392 
	C549.389465,100.619392 545.008850,100.619392 540.031433,100.619392 
	C540.031433,88.077194 540.031433,75.487816 540.304016,62.073929 
	C540.729309,56.978878 540.952209,52.709419 541.018311,48.437534 
	C541.118042,41.994190 541.073120,42.074543 547.723633,41.945210 
	C550.815247,41.885082 553.899353,41.440205 556.986877,41.169739 
M554.484009,69.885918 
	C557.974854,69.928780 561.472046,70.122719 564.954834,69.975281 
	C569.068909,69.801102 572.732483,67.621353 573.286865,63.778400 
	C573.838684,59.953991 574.088928,54.724735 568.649048,53.372162 
	C564.107910,52.243057 559.332275,52.056919 554.026245,51.371208 
	C554.026245,57.882618 554.026245,63.548470 554.484009,69.885918 
z" data-index="5"></path>
<path fill="#F0C02A" opacity="1.000000" stroke="none" d="
M493.000885,78.131927 
	C493.000885,78.131935 492.954437,78.561096 492.704895,79.051987 
	C492.301636,80.424835 492.147888,81.306786 491.994141,82.188736 
	C491.994110,82.188736 491.971985,82.576950 491.728333,82.994598 
	C491.334381,83.968597 491.184082,84.524956 491.033813,85.081314 
	C491.033813,85.081314 491.024109,85.014427 490.931763,85.096809 
	C490.619781,85.425720 490.609222,85.688499 490.807800,85.967529 
	C488.995239,90.990295 487.182678,96.013054 485.464264,100.774956 
	C480.357117,100.774956 475.415192,100.774956 470.345947,100.774956 
	C474.131592,91.096886 477.422089,82.245300 481.047974,73.533310 
	C485.018158,63.994045 489.175720,54.527363 493.496338,45.141685 
	C495.569275,40.638615 498.423248,39.984760 503.150543,41.502216 
	C505.009399,42.098907 507.219971,41.599976 509.798981,41.599976 
	C517.601135,60.674332 525.647339,80.345329 534.033997,100.848732 
	C528.362854,101.098351 523.844971,101.297203 518.626282,101.526909 
	C513.085388,87.291046 507.457855,72.832611 501.470825,57.450520 
	C500.777832,59.678642 500.372864,60.980804 499.583191,62.788422 
	C498.818451,64.563599 498.438385,65.833321 498.058350,67.103043 
	C498.058350,67.103043 498.055145,67.032150 497.739807,67.152344 
	C496.963318,68.875435 496.502167,70.478325 496.041016,72.081223 
	C496.041016,72.081223 496.025665,72.016106 495.714691,72.143654 
	C494.950897,73.872452 494.498047,75.473709 494.045227,77.074959 
	C494.045227,77.074959 494.019318,77.012901 493.832581,77.154984 
	C493.430817,77.575356 493.215851,77.853638 493.000885,78.131927 
z" data-index="6"></path>
<path fill="#F0C029" opacity="1.000000" stroke="none" d="
M258.174103,97.829613 
	C258.174103,97.829613 258.037872,97.513992 257.879883,97.106407 
	C257.441772,96.468269 257.161682,96.237717 256.881592,96.007164 
	C256.881592,96.007164 256.955933,96.019623 256.964539,95.748474 
	C256.967621,95.271988 256.962158,95.066635 256.956726,94.861290 
	C256.956726,94.861290 256.984070,94.525131 256.863037,94.113525 
	C256.467834,93.469337 256.193695,93.236771 255.919540,93.004196 
	C255.919540,93.004196 255.984100,93.009521 255.988693,92.744064 
	C255.987961,92.281975 255.982620,92.085350 255.977295,91.888718 
	C251.539932,80.774605 247.102554,69.660500 242.635925,58.473091 
	C239.637344,64.960136 236.364471,71.307892 233.745239,77.914780 
	C231.170120,84.410423 229.344070,91.199821 226.979630,97.785019 
	C226.534134,99.025711 225.170578,100.732437 224.115524,100.818871 
	C219.871246,101.166611 215.581787,100.962822 210.643814,100.962822 
	C218.815567,80.659897 226.718491,61.024887 234.774002,41.010780 
	C239.277481,41.010780 244.107040,40.865032 248.914764,41.124008 
	C249.977310,41.181244 251.474869,42.464970 251.903549,43.532669 
	C255.732697,53.069515 259.324677,62.701199 263.074951,72.270279 
	C265.286102,77.912163 267.657288,83.491325 269.976807,89.808426 
	C270.271149,91.343536 270.545197,92.168915 270.819214,92.994301 
	C271.202087,93.744659 271.584930,94.495010 271.967407,95.986549 
	C270.724701,97.820297 269.592682,99.648361 268.217407,99.854607 
	C265.216339,100.304703 262.091553,99.929878 259.017334,99.892090 
	C259.017334,99.892090 259.008606,99.521049 258.910675,99.090042 
	C258.599854,98.382561 258.386993,98.106087 258.174103,97.829613 
z" data-index="7" style="opacity: 1;"></path>
<path fill="#F0BF2A" opacity="1.000000" stroke="none" d="
M599.081909,101.074623 
	C596.231506,103.230003 595.142456,101.566513 595.075623,98.951210 
	C594.651428,82.363113 594.277466,65.772865 594.069580,49.181034 
	C594.037720,46.637039 594.950134,44.081211 595.517334,41.039906 
	C603.163879,41.039906 610.944641,40.974129 618.723694,41.060314 
	C625.171204,41.131744 631.619568,41.324444 638.058960,41.639843 
	C638.728943,41.672661 639.732422,42.822235 639.893860,43.596886 
	C640.193481,45.034653 639.956482,46.578938 639.994751,48.077541 
	C640.082886,51.530201 639.971069,53.872696 635.035156,52.290730 
	C631.962158,51.305840 628.207031,52.605289 624.759277,52.590874 
	C621.200867,52.575993 617.629089,52.347828 614.090271,51.963295 
	C610.175415,51.537910 608.795654,52.949726 608.893433,56.989677 
	C609.143127,67.314011 608.977600,77.648392 609.135803,88.813110 
	C611.462830,90.110420 613.616211,90.864433 615.804382,90.984314 
	C623.883118,91.426910 631.973389,91.659813 640.049316,92.417137 
	C639.918396,100.008759 639.918396,100.012062 632.994568,100.014053 
	C623.419067,100.016808 613.843079,99.961899 604.268616,100.061363 
	C602.536377,100.079361 600.810669,100.720932 599.081909,101.074623 
z" data-index="8"></path>
<path fill="#F1C02A" opacity="1.000000" stroke="none" d="
M176.867874,51.837143 
	C176.557190,52.359356 176.246521,52.881565 175.675247,54.082863 
	C175.261276,61.569065 174.964218,68.377037 175.004562,75.182999 
	C175.031891,79.792519 175.533585,84.399223 175.823105,89.007187 
	C185.544357,89.670212 195.265594,90.333229 205.469269,91.431076 
	C206.080811,99.990227 206.080811,99.996490 197.893707,100.004692 
	C186.590698,100.016014 175.287689,100.016731 163.764130,99.671814 
	C163.411682,98.843071 163.165787,98.364853 163.164368,97.885910 
	C163.112518,80.434395 163.037033,62.982555 163.136230,45.531738 
	C163.144455,44.082241 164.354340,42.639576 165.005920,41.193733 
	C175.523972,40.808380 186.040787,40.382500 196.560944,40.067074 
	C199.091934,39.991188 201.633911,40.281631 204.563660,40.751442 
	C205.150589,50.932194 205.148941,50.830070 195.505432,50.986347 
	C189.289948,51.087067 183.080200,51.541332 176.867874,51.837143 
z" data-index="9" style="opacity: 1;"></path>
<path fill="#EFBF2C" opacity="1.000000" stroke="none" d="
M424.316162,43.018082 
	C440.516296,37.524811 459.626526,42.114895 466.103485,54.324966 
	C464.491730,55.332687 462.634949,56.164204 461.191711,57.457279 
	C456.730652,61.454266 453.430084,61.114140 448.860596,56.707760 
	C442.944061,51.002468 429.421021,53.222813 422.388184,59.118748 
	C417.476654,63.236286 414.155121,68.348763 412.147400,74.423447 
	C411.499603,76.383362 410.301575,78.161430 409.355255,80.022690 
	C408.835632,80.010170 408.315979,79.997643 407.796356,79.985123 
	C407.381897,78.554565 406.806305,77.149200 406.578064,75.689529 
	C404.429688,61.950050 409.654877,51.764366 421.558502,44.819569 
	C422.402954,44.326900 423.132416,43.637100 424.316162,43.018082 
z" data-index="10"></path>
<path fill="#EE5355" opacity="1.000000" stroke="none" d="
M419.203674,90.477303 
	C418.226044,84.471680 413.465576,78.730934 419.589386,73.108421 
	C421.783905,76.334686 423.740051,79.719025 426.187103,82.700424 
	C431.015930,88.583534 441.253418,92.404266 448.970734,85.717262 
	C454.680054,80.770172 458.419006,83.271309 463.099945,85.657730 
	C464.359283,86.299751 465.561859,87.053062 467.070160,87.915146 
	C462.370819,95.351532 455.909424,99.160095 447.206116,101.364700 
	C438.801392,103.493668 431.867798,102.866310 425.335663,97.676804 
	C423.004974,95.825218 421.336334,93.140335 419.203674,90.477303 
z" data-index="11" style="opacity: 1;"></path>
<path fill="#EFC02C" opacity="1.000000" stroke="none" d="
M343.039612,61.919785 
	C343.002380,74.983543 343.002380,87.628067 343.002380,100.621964 
	C338.701691,100.621964 334.652100,100.621964 330.337280,100.621964 
	C329.893280,93.248711 328.553955,85.792572 329.258301,78.534760 
	C329.958588,71.318909 333.655884,64.831337 339.510010,60.006702 
	C340.378571,59.290882 341.372742,58.727463 342.308807,58.093544 
	C342.564819,59.229214 342.820831,60.364883 343.039612,61.919785 
z" data-index="12" style="opacity: 1;"></path>
<path fill="#ECBE2C" opacity="1.000000" stroke="none" d="
M628.025879,77.995163 
	C614.714783,78.012184 614.457825,77.654549 618.573364,64.837234 
	C624.418457,64.837234 630.406616,64.837234 636.383179,64.837234 
	C636.677795,65.639603 636.856628,66.067818 636.993713,66.509010 
	C639.699524,75.218933 637.650146,77.984718 628.025879,77.995163 
z" data-index="13"></path>
<path fill="#ECBE2B" opacity="1.000000" stroke="none" d="
M190.047028,64.493179 
	C194.650986,64.502815 198.979523,64.776054 202.855072,65.020699 
	C203.138367,69.225952 203.362640,72.555031 203.653976,76.879601 
	C201.700012,77.197624 199.303772,77.699829 196.881531,77.944939 
	C195.072647,78.127983 193.230179,77.978889 191.402664,77.977997 
	C182.273163,77.973557 181.400940,76.717613 184.413757,68.070419 
	C184.705765,67.232262 184.660156,66.276474 184.792984,65.199173 
	C186.245636,65.070091 188.008606,64.913429 190.047028,64.493179 
z" data-index="14" style="opacity: 1;"></path>
<path fill="#E1BC4A" opacity="1.000000" stroke="none" d="
M296.905823,43.567856 
	C292.615631,40.297955 287.730988,42.115540 283.108002,42.604668 
	C282.359497,42.683853 281.297699,44.987961 281.307007,46.256844 
	C281.426331,62.542591 281.823547,78.826691 281.883575,95.112198 
	C281.898865,99.251640 283.676086,100.144966 287.341125,100.095108 
	C290.735107,100.048935 292.138824,98.903076 292.057892,95.418327 
	C291.891785,88.267273 291.839203,81.104942 292.063416,73.957405 
	C292.163422,70.769646 293.045319,67.606415 294.729614,64.506332 
	C294.830811,65.389084 294.932007,66.271835 295.038635,67.472900 
	C294.365265,69.166443 293.123749,70.531380 293.098358,71.918587 
	C292.925110,81.377495 293.007660,90.841080 293.007660,100.652161 
	C288.718903,100.652161 284.672302,100.652161 280.036011,100.652161 
	C280.036011,80.963219 280.036011,61.265453 280.036011,40.999832 
	C284.670502,40.999832 289.908173,40.927555 295.138245,41.093803 
	C295.772644,41.113968 296.366180,42.419930 296.905823,43.567856 
z" data-index="15"></path>
<path fill="#E4BE4A" opacity="1.000000" stroke="none" d="
M126.940842,40.631371 
	C121.715042,41.326057 116.266342,41.896824 110.816391,41.909073 
	C107.087128,41.917454 105.905960,43.318779 105.935768,46.937168 
	C106.067429,62.919235 106.126259,78.904633 105.918137,94.885010 
	C105.860085,99.343285 107.839211,100.224205 111.657104,100.068245 
	C115.149467,99.925575 118.447968,100.311668 118.087112,95.060898 
	C117.850960,91.624672 118.394478,88.134850 118.842178,84.340508 
	C119.095566,89.805084 119.095566,95.598198 119.095566,101.058044 
	C114.270706,101.058044 109.904861,101.058044 105.269684,101.058044 
	C105.269684,80.957817 105.269684,61.274849 105.269684,40.269386 
	C112.418427,40.269386 119.567924,40.269386 126.940842,40.631371 
z" data-index="16" style="opacity: 1;"></path>
<path fill="#DFC160" opacity="1.000000" stroke="none" d="
M164.569824,41.120049 
	C164.354340,42.639576 163.144455,44.082241 163.136230,45.531738 
	C163.037033,62.982555 163.112518,80.434395 163.164368,97.885910 
	C163.165787,98.364853 163.411682,98.843071 163.766571,99.873367 
	C163.989548,100.425110 163.994400,100.828651 163.994400,100.828651 
	C163.331100,100.220901 162.091492,99.616241 162.088211,99.004944 
	C161.987640,80.296410 161.988190,61.587109 162.099640,42.878677 
	C162.103287,42.263889 163.425934,41.656952 164.569824,41.120049 
z" data-index="17"></path>
<path fill="#E0BD4A" opacity="1.000000" stroke="none" d="
M164.458267,100.902786 
	C163.994400,100.828651 163.989548,100.425110 163.987122,100.223557 
	C175.287689,100.016731 186.590698,100.016014 197.893707,100.004692 
	C206.080811,99.996490 206.080811,99.990227 205.931992,91.415253 
	C206.393448,94.408234 206.874603,97.851845 207.311249,100.976929 
	C192.725052,100.976929 178.823593,100.976929 164.458267,100.902786 
z" data-index="18"></path>
<path fill="#E5C14B" opacity="1.000000" stroke="none" d="
M599.542480,101.041817 
	C600.810669,100.720932 602.536377,100.079361 604.268616,100.061363 
	C613.843079,99.961899 623.419067,100.016808 632.994568,100.014053 
	C639.918396,100.012062 639.918396,100.008759 640.246948,92.421875 
	C640.454590,91.981041 640.851135,91.985046 640.851135,91.985046 
	C640.851135,94.791138 640.851135,97.597229 640.851135,101.009010 
	C627.182251,101.009010 613.592651,101.009010 599.542480,101.041817 
z" data-index="19"></path>
<path fill="#DBBE59" opacity="1.000000" stroke="none" d="
M177.344833,51.911724 
	C183.080200,51.541332 189.289948,51.087067 195.505432,50.986347 
	C205.148941,50.830070 205.150589,50.932194 204.923035,40.661777 
	C205.556412,40.807289 206.833069,41.440083 206.790207,41.965160 
	C206.529312,45.161064 205.968170,48.332462 205.438477,51.986301 
	C196.301147,51.986301 187.061462,51.986301 177.344833,51.911724 
z" data-index="20"></path>
<path fill="#E4BF51" opacity="1.000000" stroke="none" d="
M556.524780,41.096741 
	C553.899353,41.440205 550.815247,41.885082 547.723633,41.945210 
	C541.073120,42.074543 541.118042,41.994190 541.018311,48.437534 
	C540.952209,52.709419 540.729309,56.978878 540.380371,61.608704 
	C540.184204,55.115253 540.184204,48.262524 540.184204,41.023739 
	C544.861633,41.023739 550.462097,41.023739 556.524780,41.096741 
z" data-index="21"></path>
<path fill="#DEC05C" opacity="1.000000" stroke="none" d="
M175.895782,88.542252 
	C175.533585,84.399223 175.031891,79.792519 175.004562,75.182999 
	C174.964218,68.377037 175.261276,61.569065 175.604492,54.400337 
	C175.852371,65.384918 175.910431,76.731117 175.895782,88.542252 
z" data-index="22" style="opacity: 1;"></path>
<path fill="#E2C05F" opacity="1.000000" stroke="none" d="
M640.904663,91.551262 
	C640.851135,91.985046 640.454590,91.981041 640.256958,91.976303 
	C631.973389,91.659813 623.883118,91.426910 615.804382,90.984314 
	C613.616211,90.864433 611.462830,90.110420 609.151917,89.275467 
	C610.731384,89.267479 612.447937,89.918663 614.174255,89.945786 
	C621.656921,90.063339 629.143372,89.940483 636.626282,90.050743 
	C638.075195,90.072098 639.514404,90.745087 640.904663,91.551262 
z" data-index="23"></path>
<path fill="#DFBC49" opacity="1.000000" stroke="none" d="
M258.739014,100.130432 
	C262.091553,99.929878 265.216339,100.304703 268.217407,99.854607 
	C269.592682,99.648361 270.724701,97.820297 271.985748,96.312851 
	C272.666077,97.304405 273.327667,98.710831 274.501282,101.205612 
	C268.653809,100.900551 263.557281,100.634659 258.739014,100.130432 
z" data-index="24"></path>
<path fill="#E8BD4B" opacity="1.000000" stroke="none" d="
M494.376923,76.930145 
	C494.498047,75.473709 494.950897,73.872452 495.748047,72.146011 
	C495.631134,73.608994 495.169891,75.197166 494.376923,76.930145 
z" data-index="25"></path>
<path fill="#E8BD4B" opacity="1.000000" stroke="none" d="
M496.368286,71.924225 
	C496.502167,70.478325 496.963318,68.875435 497.775208,67.154480 
	C497.649170,68.613358 497.172363,70.190292 496.368286,71.924225 
z" data-index="26"></path>
<path fill="#E8BD4B" opacity="1.000000" stroke="none" d="
M498.378296,66.970818 
	C498.438385,65.833321 498.818451,64.563599 499.509460,63.151413 
	C499.446411,64.285500 499.072357,65.562050 498.378296,66.970818 
z" data-index="27"></path>
<path fill="#DFBC49" opacity="1.000000" stroke="none" d="
M270.890015,92.639526 
	C270.545197,92.168915 270.271149,91.343536 269.995667,90.183395 
	C270.316437,90.660667 270.638641,91.472702 270.890015,92.639526 
z" data-index="28"></path>
<path fill="#E8BD4B" opacity="1.000000" stroke="none" d="
M492.326294,82.021324 
	C492.147888,81.306786 492.301636,80.424835 492.637878,79.257156 
	C492.766388,79.932259 492.712433,80.893082 492.326294,82.021324 
z" data-index="29"></path>
<path fill="#E8BD4B" opacity="1.000000" stroke="none" d="
M491.332336,84.948517 
	C491.184082,84.524956 491.334381,83.968597 491.654907,83.174622 
	C491.760406,83.563248 491.695648,84.189476 491.332336,84.948517 
z" data-index="30"></path>
<path fill="#DFBC49" opacity="1.000000" stroke="none" d="
M255.728058,91.980728 
	C255.982620,92.085350 255.987961,92.281975 255.974365,92.773117 
	C255.796570,92.735992 255.637695,92.404358 255.728058,91.980728 
z" data-index="31"></path>
<path fill="#E8BD4B" opacity="1.000000" stroke="none" d="
M490.893890,85.734802 
	C490.609222,85.688499 490.619781,85.425720 490.965515,85.098862 
	C491.091583,85.018539 490.979980,85.502083 490.893890,85.734802 
z" data-index="32"></path>
<path fill="#DFBC49" opacity="1.000000" stroke="none" d="
M255.987976,93.282784 
	C256.193695,93.236771 256.467834,93.469337 256.866516,93.944916 
	C256.679474,93.979073 256.367950,93.770226 255.987976,93.282784 
z" data-index="33"></path>
<path fill="#DFBC49" opacity="1.000000" stroke="none" d="
M256.702576,94.960220 
	C256.962158,95.066635 256.967621,95.271988 256.957275,95.785477 
	C256.777100,95.748795 256.612762,95.403976 256.702576,94.960220 
z" data-index="34"></path>
<path fill="#DFBC49" opacity="1.000000" stroke="none" d="
M256.970398,96.280342 
	C257.161682,96.237717 257.441772,96.468269 257.860535,96.935623 
	C257.685883,96.966118 257.372528,96.759819 256.970398,96.280342 
z" data-index="35"></path>
<path fill="#DFBC49" opacity="1.000000" stroke="none" d="
M258.125336,98.129562 
	C258.386993,98.106087 258.599854,98.382561 258.905884,98.904526 
	C258.691559,98.909859 258.384064,98.669685 258.125336,98.129562 
z" data-index="36"></path>
<path fill="#E8BD4B" opacity="1.000000" stroke="none" d="
M493.264282,78.034134 
	C493.215851,77.853638 493.430817,77.575356 493.865540,77.148346 
	C493.899384,77.311874 493.713531,77.624107 493.264282,78.034134 
z" data-index="37"></path>

<path fill="#E1C05E" opacity="1.000000" stroke="none" d="
M55.844452,52.294846 
	C56.071663,63.987289 56.044464,76.014526 56.068405,88.506531 
	C55.797714,88.404465 55.191616,87.835419 55.195988,87.271118 
	C55.285500,75.723633 55.444721,64.176697 55.844452,52.294846 
z" data-index="39"></path>
<path fill="#E1C05E" opacity="1.000000" stroke="none" d="
M59.752335,51.646416 
	C58.901833,51.891914 57.847141,51.951508 56.397186,52.066875 
	C57.183994,51.901936 58.366070,51.681221 59.752335,51.646416 
z" data-index="40"></path>
<path fill="#000000" opacity="1.000000" stroke="none" d="
M138.029251,59.320229 
	C137.987701,67.222954 136.373596,69.226532 129.165115,69.955040 
	C125.930916,70.281898 122.636246,70.010361 119.282501,70.010361 
	C119.282501,63.771301 119.282501,57.999790 119.282501,51.862747 
	C126.174721,52.961269 134.577881,49.011932 138.029251,59.320229 
z" data-index="41" style="opacity: 1; visibility: visible; fill: rgb(238, 83, 85);"></path>

</svg>